<?xml version="1.0" encoding="UTF-8" standalone="no"?>
<!-- Created with Inkscape (http://www.inkscape.org/) -->

<svg
   width="72.031502"
   height="72.031502"
   viewBox="0 0 19.058334 19.058335"
   version="1.1"
   id="svg5"
   inkscape:version="1.3.2 (091e20e, 2023-11-25, custom)"
   sodipodi:docname="frimotion_icon.svg"
   inkscape:export-filename="frimotion_icon-512.png"
   inkscape:export-xdpi="682.3681"
   inkscape:export-ydpi="682.3681"
   xml:space="preserve"
   xmlns:inkscape="http://www.inkscape.org/namespaces/inkscape"
   xmlns:sodipodi="http://sodipodi.sourceforge.net/DTD/sodipodi-0.dtd"
   xmlns:xlink="http://www.w3.org/1999/xlink"
   xmlns="http://www.w3.org/2000/svg"
   xmlns:svg="http://www.w3.org/2000/svg"><sodipodi:namedview
     id="namedview7"
     pagecolor="#ffffff"
     bordercolor="#666666"
     borderopacity="1.0"
     inkscape:pageshadow="2"
     inkscape:pageopacity="0.0"
     inkscape:pagecheckerboard="0"
     inkscape:document-units="mm"
     showgrid="false"
     units="px"
     fit-margin-top="2"
     lock-margins="true"
     fit-margin-left="2"
     fit-margin-right="2"
     fit-margin-bottom="2"
     inkscape:zoom="7.2920356"
     inkscape:cx="17.416262"
     inkscape:cy="34.009708"
     inkscape:window-width="2192"
     inkscape:window-height="1081"
     inkscape:window-x="3781"
     inkscape:window-y="132"
     inkscape:window-maximized="0"
     inkscape:current-layer="layer3"
     inkscape:showpageshadow="2"
     inkscape:deskcolor="#d1d1d1" /><defs
     id="defs2"><linearGradient
       id="linearGradient1138"><stop
         id="stop1134"
         offset="0"
         style="stop-color:#26aa90;stop-opacity:0.22745098;" /><stop
         id="stop1136"
         offset="1"
         style="stop-color:#26aa90;stop-opacity:1;" /></linearGradient><linearGradient
       inkscape:collect="always"
       xlink:href="#linearGradient10336"
       id="linearGradient3912"
       x1="3.6895137"
       y1="6.2031655"
       x2="29.842983"
       y2="6.2031655"
       gradientUnits="userSpaceOnUse"
       gradientTransform="matrix(0.57192632,0,0,0.57116467,0.20096435,0.32984726)" /><linearGradient
       id="linearGradient10336"><stop
         id="stop10332"
         offset="0"
         style="stop-color:#26aa90;stop-opacity:0.22745098;" /><stop
         id="stop10334"
         offset="1"
         style="stop-color:#26aa90;stop-opacity:1;" /></linearGradient><linearGradient
       inkscape:collect="always"
       xlink:href="#linearGradient1138"
       id="linearGradient14741"
       gradientUnits="userSpaceOnUse"
       gradientTransform="matrix(-0.53987062,-0.18853265,0.18878407,-0.53915166,16.769449,25.703008)"
       x1="4.6623721"
       y1="10.800455"
       x2="31.570242"
       y2="10.982895" /></defs><g
     inkscape:groupmode="layer"
     id="layer4"
     inkscape:label="frame"><rect
       style="fill:#ffffff;fill-opacity:1;stroke:#218370;stroke-width:0.529;stroke-linejoin:round;stroke-opacity:1"
       id="rect7516"
       width="17.471001"
       height="17.471001"
       x="44.084259"
       y="108.93541"
       ry="1.8786023"
       transform="translate(-43.290593,-108.14174)" /></g><g
     inkscape:groupmode="layer"
     id="layer3"
     inkscape:label="showflake"><path
       fill-rule="evenodd"
       clip-rule="evenodd"
       fill="none"
       stroke="#000000"
       stroke-miterlimit="10"
       d="M 10.916281,5.6378514 C 10.792506,5.4222173 10.675834,5.2175776 10.558092,5.0134756 10.28923,4.5473213 10.022802,4.0796123 9.7482467,3.6167201 9.6874286,3.5142104 9.6862138,3.4375757 9.7507825,3.3366685 9.8742177,3.1437057 9.9824235,2.9411598 10.098707,2.7396361 c 0.263364,0 0.517336,0.00358 0.771116,-0.00186 0.09458,-0.00199 0.122066,0.06175 0.157978,0.1239251 0.214661,0.3718137 0.428982,0.7438213 0.643983,1.1154399 0.02938,0.05089 0.06155,0.1003191 0.104316,0.1698029 0.318049,-0.5499359 0.623255,-1.0776836 0.931088,-1.6099096 0.287156,0 0.569835,0 0.864824,0 0.12354,0.2145641 0.247309,0.4361343 0.378333,0.6532289 0.04286,0.07103 0.02087,0.1234338 -0.01417,0.1833757 -0.137011,0.235143 -0.272511,0.4711649 -0.408645,0.7066969 -0.124018,0.2147579 -0.24833,0.4291759 -0.372008,0.6440812 -0.02631,0.045632 -0.05016,0.092632 -0.08733,0.1615301 0.55373,0 1.08294,0 1.61672,0 0.135695,0.2343663 0.26818,0.457543 0.393026,0.6848527 0.01893,0.034493 0.01844,0.097066 -3.67e-4,0.1318513 -0.109321,0.2020109 -0.227896,0.3989608 -0.34053,0.5993187 -0.03026,0.053612 -0.06899,0.077018 -0.130776,0.075319 -0.114777,-0.00305 -0.229888,-5.523e-4 -0.344809,-5.523e-4 -0.617273,0 -1.234447,0 -1.851622,0 -0.06602,0 -0.13209,0 -0.207459,0 -0.457152,0.7923293 -0.912262,1.5809597 -1.381089,2.393528 0.08739,0.00398 0.145036,0.0089 0.202838,0.0089 0.792618,5.51e-4 1.585386,-0.00305 2.378007,0.00358 0.13803,0.00129 0.21505,-0.03756 0.284432,-0.1611411 0.340333,-0.606423 0.691905,-1.2064706 1.039635,-1.808661 0.03328,-0.057555 0.06725,-0.1146314 0.10875,-0.1851773 0.260638,0 0.526045,-0.00212 0.791451,0.00279 0.03382,5.523e-4 0.08018,0.030948 0.09833,0.061113 0.133942,0.2223469 0.262099,0.4480528 0.39244,0.6736127 -0.267984,0.4666388 -0.531785,0.9257857 -0.812373,1.4142236 0.0921,0 0.150244,0 0.208433,0 0.502158,0 1.004509,0.00252 1.506666,-0.00212 0.108152,-9.188e-4 0.177296,0.026368 0.230475,0.1280143 0.108988,0.2083837 0.232078,0.4093245 0.352934,0.6194608 -0.128293,0.2224942 -0.258694,0.4400748 -0.379792,0.6627644 -0.04579,0.08417 -0.114047,0.07576 -0.18576,0.07576 -0.508191,1.83e-4 -1.016527,9.7e-5 -1.524815,1.47e-4 -0.05843,0 -0.116862,0 -0.211935,0 0.280734,0.488193 0.544438,0.946949 0.816315,1.419963 -0.130444,0.22551 -0.260396,0.456276 -0.398378,0.682175 -0.01981,0.0325 -0.0778,0.05752 -0.118867,0.05854 -0.223662,0.0056 -0.447762,-5.51e-4 -0.671569,0.0044 -0.09181,0.0021 -0.12431,-0.05591 -0.161192,-0.120327 -0.244241,-0.424604 -0.489554,-0.848525 -0.734527,-1.272689 -0.126992,-0.219965 -0.256405,-0.438518 -0.379646,-0.660525 -0.04238,-0.07649 -0.09099,-0.113649 -0.183765,-0.113264 -0.853196,0.0033 -1.70639,0.0021 -2.559537,0.0025 -0.0178,0 -0.03561,0.0049 -0.07157,0.01022 0.01994,0.04691 0.03338,0.09089 0.05566,0.129714 0.410201,0.71273 0.823564,1.423758 1.230311,2.138534 0.05644,0.09935 0.123673,0.127138 0.231544,0.126554 0.689766,-0.004 1.379534,-0.0039 2.069445,-0.0013 0.309877,0.0013 0.23602,-0.04461 0.39181,0.220986 0.08266,0.140901 0.16046,0.284675 0.247064,0.422852 0.04462,0.07114 0.0436,0.128931 1.84e-4,0.200063 -0.103877,0.170388 -0.206195,0.342088 -0.298394,0.518895 -0.04914,0.09424 -0.113064,0.122757 -0.215488,0.121482 -0.4175,-0.0049 -0.835047,-0.002 -1.252546,-0.002 -0.06632,0 -0.132635,0 -0.231204,0 0.03873,0.07527 0.06529,0.132236 0.09643,0.186441 0.25023,0.435161 0.497634,0.871926 0.754623,1.303001 0.06141,0.102948 0.06486,0.179532 -0.0011,0.279711 -0.09955,0.151313 -0.189021,0.310071 -0.271732,0.471261 -0.05158,0.100425 -0.120659,0.134382 -0.230425,0.130006 -0.187368,-0.0076 -0.375268,-0.007 -0.562584,-1.45e-4 -0.103877,0.0038 -0.163916,-0.03294 -0.215441,-0.124257 -0.24945,-0.442411 -0.505806,-0.880929 -0.760021,-1.320759 -0.02958,-0.05133 -0.06174,-0.101342 -0.105431,-0.17316 -0.278251,0.479874 -0.547259,0.943886 -0.816218,1.40785 -0.287058,0 -0.564579,0 -0.855287,0 -0.1279108,-0.221715 -0.2557249,-0.447567 -0.3884026,-0.670598 -0.043594,-0.07318 -0.0068,-0.126261 0.02637,-0.18362 0.1964153,-0.340431 0.3929286,-0.680863 0.5894426,-1.021244 0.172284,-0.298491 0.341842,-0.598734 0.518845,-0.894406 0.05235,-0.08753 0.0596,-0.155643 0.0054,-0.24828 -0.424311,-0.725577 -0.843027,-1.454459 -1.2636401,-2.182077 -0.014895,-0.02574 -0.032938,-0.04978 -0.057365,-0.08626 -0.034348,0.05274 -0.064903,0.09531 -0.090983,0.140462 -0.4054327,0.701493 -0.807459,1.405076 -1.2180024,2.103649 -0.065189,0.110927 -0.05697,0.189799 0.00518,0.295767 0.3612547,0.615278 0.712536,1.236491 1.0746183,1.85133 0.067044,0.113755 0.072835,0.200308 -0.00129,0.311336 -0.1004213,0.150535 -0.188339,0.310266 -0.2713431,0.471361 -0.048752,0.09458 -0.113941,0.124257 -0.2164135,0.120181 -0.1812846,-0.0072 -0.363395,-0.0093 -0.5443875,7.36e-4 C 8.1492122,16.32509 8.0822191,16.28638 8.0240789,16.181142 7.8194884,15.810595 7.6041476,15.44608 7.3923571,15.07957 7.3624841,15.0279 7.3297441,14.977976 7.2880417,14.910691 c -0.036777,0.05562 -0.066955,0.09653 -0.092247,0.14027 -0.257428,0.444892 -0.516801,0.888663 -0.7687325,1.336718 -0.054448,0.09672 -0.1173,0.137835 -0.2283334,0.133069 -0.1812341,-0.0077 -0.363298,-0.0085 -0.5443874,3.68e-4 -0.1170079,0.0057 -0.1905292,-0.02836 -0.2449227,-0.137253 -0.080908,-0.162067 -0.1730145,-0.319218 -0.2708083,-0.471749 -0.059891,-0.09342 -0.059546,-0.166932 -0.00212,-0.263704 0.2530972,-0.426305 0.4980198,-0.857526 0.7455235,-1.287187 0.033033,-0.05732 0.063874,-0.1158 0.110104,-0.199871 -0.1939347,-0.02131 -0.3715695,-0.008 -0.5479882,-0.01036 -0.1754468,-0.0024 -0.35094,-5.52e-4 -0.5264373,-5.52e-4 -0.181185,0 -0.3623249,0 -0.5522685,0 -0.1319443,-0.22877 -0.264239,-0.451995 -0.3882092,-0.679743 -0.018203,-0.03347 -0.011418,-0.09614 0.0081,-0.13209 0.1067051,-0.196561 0.2228846,-0.387966 0.3315772,-0.583409 0.037414,-0.06723 0.087281,-0.0902 0.1618223,-0.08894 0.2057098,0.0033 0.4114687,0.0011 0.6171758,0.0011 0.5385511,0 1.0771008,-0.0019 1.6156027,0.0015 0.099788,7.35e-4 0.1647895,-0.02297 0.2185523,-0.117446 0.4097136,-0.72003 0.8257057,-1.436361 1.239069,-2.154395 0.019942,-0.03455 0.033232,-0.07304 0.05624,-0.124403 -0.064273,-0.0036 -0.1105952,-0.0086 -0.1569085,-0.0086 -0.8108676,-5.51e-4 -1.6217325,0.0031 -2.4325005,-0.004 -0.1299129,-0.0011 -0.1935456,0.04808 -0.2532445,0.153017 -0.3498713,0.615034 -0.7101529,1.223937 -1.0554981,1.841403 -0.076341,0.136523 -0.1619192,0.187171 -0.3141091,0.175934 -0.1805557,-0.01328 -0.3628613,-0.0053 -0.544341,-0.0023 -0.068455,0.0011 -0.1124806,-0.02238 -0.1463495,-0.08242 -0.124257,-0.220694 -0.2520284,-0.439491 -0.380522,-0.662665 0.2675967,-0.465277 0.5319326,-0.924961 0.8086756,-1.406148 -0.074629,-0.0056 -0.1255316,-0.01261 -0.1764187,-0.01261 -0.5082867,-9.21e-4 -1.0166716,-0.0049 -1.5248136,0.0024 -0.1256,0.0019 -0.1974604,-0.03663 -0.2551651,-0.148343 C 1.6916892,9.9199677 1.573416,9.7297306 1.4550406,9.5245094 1.5840772,9.301042 1.7163135,9.0785477 1.8414017,8.8520147 c 0.04607,-0.083391 0.1164768,-0.072159 0.187757,-0.072252 0.4719907,-3.677e-4 0.9439815,-1.447e-4 1.4159244,-1.447e-4 0.090348,0 0.1807004,0 0.3048658,0 C 3.4846876,8.2932246 3.2087717,7.8422031 2.9421469,7.364421 3.0710375,7.1417821 3.2016674,6.9116006 3.3384828,6.6852136 c 0.017565,-0.029089 0.066902,-0.054448 0.1019787,-0.055125 0.2596664,-0.00451 0.5194298,-0.00252 0.785031,-0.00252 0.4142383,0.7168191 0.8251215,1.4278974 1.2387278,2.1436929 0.915617,0 1.8275857,0 2.7734671,0 C 7.7726058,7.9646731 7.3183236,7.1767729 6.8590798,6.380308 c -0.8312526,0 -1.6585635,0 -2.4909832,0 C 4.2369756,6.1527048 4.1113988,5.932449 3.9831469,5.7137014 3.952305,5.6611521 3.9494771,5.6165423 3.9815537,5.5624369 4.0986147,5.3647542 4.2144104,5.1661992 4.3251464,4.9649172 c 0.04068,-0.073951 0.1019786,-0.072637 0.1692678,-0.072544 0.4235798,3.678e-4 0.8471609,1.846e-4 1.2706928,1.474e-4 0.065826,0 0.1316522,0 0.2207922,0 C 5.954128,4.8266413 5.9344253,4.7783804 5.9086817,4.7336165 5.6555846,4.2932988 5.4058438,3.8508886 5.1446199,3.4152416 5.0785416,3.3050845 5.0808783,3.2254918 5.1480719,3.1204475 5.2683857,2.9323028 5.3739225,2.7347675 5.4882113,2.5366002 c 0.2862797,0 0.5686667,0 0.8631196,0 C 6.6548345,3.061139 6.9603322,3.5890341 7.2819334,4.1449046 7.3937368,3.9823031 7.4737756,3.8240815 7.5631533,3.6720854 7.6520411,3.5209656 7.7391338,3.3686801 7.8268586,3.2168805 7.9174059,3.0601167 8.0078019,2.9033064 8.1020442,2.7399747 c 0.2654074,0 0.5250247,-0.00292 0.7844482,0.00305 0.038781,9.188e-4 0.091517,0.034785 0.1124407,0.068946 0.1199328,0.1958797 0.2301814,0.3977937 0.348168,0.5949387 0.043302,0.072252 0.00949,0.1257174 -0.024084,0.183766 C 9.1866893,3.8262602 9.0507974,4.0619887 8.9147121,4.2976203 8.678742,4.705973 8.4438406,5.1150055 8.2056798,5.5220929 c -0.043149,0.073805 -0.055908,0.1335547 -0.00823,0.215342 0.4293711,0.7366201 0.854021,1.4760137 1.2804722,2.2143372 0.01183,0.02038 0.028899,0.037759 0.058724,0.075996 0.464353,-0.8044934 0.921991,-1.5972595 1.379482,-2.3898795 z"
       id="path412"
       style="fill:#dffaf5;stroke-width:0.0486538;fill-opacity:0.99506783" /></g><g
     inkscape:label="text"
     inkscape:groupmode="layer"
     id="layer1"
     transform="translate(-43.290592,-108.14174)"><g
       id="g7646"
       transform="translate(-1.1875e-6)"><text
         xml:space="preserve"
         style="font-style:normal;font-variant:normal;font-weight:bold;font-stretch:normal;font-size:10.5833px;line-height:1.25;font-family:sans-serif;-inkscape-font-specification:'sans-serif, Bold';font-variant-ligatures:normal;font-variant-caps:normal;font-variant-numeric:normal;font-variant-east-asian:normal;fill:#000000;fill-opacity:1;stroke:none;stroke-width:0.264583"
         x="45.719135"
         y="121.45361"
         id="text1640"><tspan
           sodipodi:role="line"
           id="tspan1638"
           style="font-style:normal;font-variant:normal;font-weight:bold;font-stretch:normal;font-size:10.5833px;font-family:sans-serif;-inkscape-font-specification:'sans-serif, Bold';font-variant-ligatures:normal;font-variant-caps:normal;font-variant-numeric:normal;font-variant-east-asian:normal;fill:#000000;fill-opacity:1;stroke-width:0.264583"
           x="45.719135"
           y="121.45361">f</tspan></text><text
         xml:space="preserve"
         style="font-style:normal;font-variant:normal;font-weight:bold;font-stretch:normal;font-size:10.5833px;line-height:1.25;font-family:sans-serif;-inkscape-font-specification:'sans-serif, Bold';font-variant-ligatures:normal;font-variant-caps:normal;font-variant-numeric:normal;font-variant-east-asian:normal;fill:#26aa90;fill-opacity:1;stroke:none;stroke-width:0.264583"
         x="49.983273"
         y="121.45361"
         id="text2436"><tspan
           sodipodi:role="line"
           id="tspan2434"
           style="font-style:normal;font-variant:normal;font-weight:bold;font-stretch:normal;font-size:10.5833px;font-family:sans-serif;-inkscape-font-specification:'sans-serif, Bold';font-variant-ligatures:normal;font-variant-caps:normal;font-variant-numeric:normal;font-variant-east-asian:normal;fill:#26aa90;fill-opacity:1;stroke-width:0.264583"
           x="49.983273"
           y="121.45361">m</tspan></text></g></g><g
     inkscape:groupmode="layer"
     id="layer2"
     inkscape:label="Arrows"><path
       style="display:inline;fill:url(#linearGradient3912);fill-opacity:1;stroke:#000000;stroke-width:0.459;stroke-linecap:butt;stroke-linejoin:round;stroke-miterlimit:4;stroke-dasharray:none;stroke-opacity:1"
       d="m 2.4826713,5.3164972 c 3.047025,-3.88691 6.590162,-4.72009994 10.9109527,-2.76236 l 0.537293,-1.53447 3.166458,4.15255 -5.067646,1.27709 0.537293,-1.53447 c -2.177461,-1.01159 -5.5862657,-1.6793 -7.7174087,1.81124 z"
       id="path4090"
       inkscape:connector-curvature="0"
       sodipodi:nodetypes="cccccccc" /><path
       sodipodi:nodetypes="cccccccc"
       inkscape:connector-curvature="0"
       id="path14739"
       d="m 16.575663,13.741808 c -3.047025,3.88691 -6.5901617,4.72011 -10.9109517,2.76238 l -0.537292,1.53448 -3.166459,-4.15259 5.067645,-1.27706 -0.537292,1.53446 c 2.17746,1.01156 5.5862657,1.67929 7.7174067,-1.81123 z"
       style="display:inline;fill:url(#linearGradient14741);fill-opacity:1;stroke:#000000;stroke-width:0.459;stroke-linecap:butt;stroke-linejoin:round;stroke-miterlimit:4;stroke-dasharray:none;stroke-opacity:1" /></g></svg>
