<?xml version="1.0" encoding="UTF-8" standalone="no"?>
<svg
   id="Ebene_1"
   data-name="Ebene 1"
   viewBox="0 0 758.89 131.99"
   version="1.1"
   sodipodi:docname="Pressfinish_Logo.svg"
   inkscape:export-filename="D:\tt\Documents\t2ft\000_Projekte\P2021_001-Pressfinish_KS-EHinge\src\eHinge-Tool\setup\res\Pressfinish_Logo.png"
   inkscape:export-xdpi="6.96"
   inkscape:export-ydpi="6.96"
   inkscape:version="1.1 (c68e22c387, 2021-05-23)"
   xmlns:inkscape="http://www.inkscape.org/namespaces/inkscape"
   xmlns:sodipodi="http://sodipodi.sourceforge.net/DTD/sodipodi-0.dtd"
   xmlns="http://www.w3.org/2000/svg"
   xmlns:svg="http://www.w3.org/2000/svg"
   xmlns:rdf="http://www.w3.org/1999/02/22-rdf-syntax-ns#"
   xmlns:cc="http://creativecommons.org/ns#"
   xmlns:dc="http://purl.org/dc/elements/1.1/">
  <sodipodi:namedview
     id="namedview47"
     pagecolor="#ffffff"
     bordercolor="#666666"
     borderopacity="1.0"
     inkscape:pageshadow="2"
     inkscape:pageopacity="0.0"
     inkscape:pagecheckerboard="0"
     showgrid="false"
     inkscape:zoom="1.4876991"
     inkscape:cx="379.44501"
     inkscape:cy="66.209625"
     inkscape:window-width="1342"
     inkscape:window-height="1081"
     inkscape:window-x="799"
     inkscape:window-y="212"
     inkscape:window-maximized="0"
     inkscape:current-layer="Ebene_1" />
  <defs
     id="defs4">
    <style
       id="style2">.cls-1,.cls-2{fill:#5e5e5e;}.cls-1{fill-rule:evenodd;}.cls-3{fill:#009c7e;}</style>
  </defs>
  <title
     id="title6">Zeichenfläche 1</title>
  <path
     class="cls-1"
     d="M156,16H465v9H156V16Z"
     id="path8" />
  <path
     class="cls-1"
     d="M156,84H465v9H156V84Z"
     id="path10" />
  <path
     class="cls-1"
     d="M156,79h18V64h18.65c12.35,0,16.8-7.12,16.8-16.3,0-10.67-4.57-16.7-16.92-16.7H156V79Zm18-37h11.17c4.36,0,6,1.46,6,5.06s-1.66,4.94-6,4.94H174V42Z"
     id="path12" />
  <polygon
     class="cls-2"
     points="288 79.02 337 79.02 337 67.02 306 67.02 306 61.02 335 61.02 335 49.02 306 49.02 306 43.02 337 43.02 337 31.02 288 31.02 288 79.02 288 79.02"
     id="polygon14" />
  <path
     class="cls-2"
     d="M377.26,61.4c2.23.39,3,1.76,3,3.14,0,2.23-1.4,3.8-6.55,3.8a12.29,12.29,0,0,1-5.62-1A3.69,3.69,0,0,1,366.32,64h-19.9c.06,13.76,13.93,15.72,26.63,15.72,18.55,0,26.86-5.37,26.86-16.77,0-7.93-5.15-12.25-13.46-13.63l-19.72-3.28a2.19,2.19,0,0,1-2.17-2.42c0-2,1.7-3.34,6.62-3.34a12,12,0,0,1,5.15,1A3.83,3.83,0,0,1,378.85,45H398c-.58-9.9-8.25-15.34-26.86-15.34C357.6,29.68,347,33,347,45.08c0,6.55,3.33,11.79,11.41,13.17l18.84,3.15Z"
     id="path16" />
  <path
     class="cls-2"
     d="M438.69,61.4c2.22.39,3,1.76,3,3.14,0,2.23-1.41,3.8-6.56,3.8a12.32,12.32,0,0,1-5.62-1A3.7,3.7,0,0,1,427.75,64h-19.9c.06,13.76,13.93,15.72,26.63,15.72,18.55,0,26.86-5.37,26.86-16.77,0-7.93-5.15-12.25-13.46-13.63l-19.72-3.28A2.19,2.19,0,0,1,426,43.64c0-2,1.7-3.34,6.62-3.34a12,12,0,0,1,5.15,1A3.83,3.83,0,0,1,440.27,45h19.2c-.59-9.9-8.25-15.34-26.86-15.34-13.58,0-24.17,3.28-24.17,15.4,0,6.55,3.33,11.79,11.41,13.17l18.84,3.15Z"
     id="path18" />
  <path
     class="cls-1"
     d="M238,43h13.19c3.16,0,5.52.87,5.52,4.5,0,3-1.55,4.5-5.25,4.5H238V43ZM219,79h18V61h6.4c3.47,0,12.17,16.55,12.84,18H279s-10.48-17-12.69-18.08a51.13,51.13,0,0,0-5.1-1.93c5.35-1.61,13.94-6.29,13.94-12.59,0-5.24-2.92-11.9-6.38-13.65-2.55-1.27-5.75-1.74-11-1.74H219V79Z"
     id="path20" />
  <path
     class="cls-3"
     d="M681.62,24c-5.37-5.05-9.34-9.82-23.81-9.82-14.83,0-25.36,9.65-25.36,22,0,11.57,8.54,16.44,19,22.23,6.81,3.74,15.3,6.59,15.3,12.17,0,5.73-3.58,9.63-10.59,9.63-7.35,0-12.26-3.66-14.59-9.4L630.84,82.25c6.07,8.61,12.85,12.37,25,12.37,18,0,28-8.53,28-25.48,0-20.9-34-22.18-34-33.15,0-5.32,5.11-8,10.6-8a10.29,10.29,0,0,1,10.3,7.14l11-11.09Z"
     id="path22" />
  <polygon
     class="cls-3"
     points="524 16.02 524 93.02 542 93.02 541.99 16.02 524 16.02 524 16.02"
     id="polygon24" />
  <path
     class="cls-3"
     d="M549,16V93h17V40h.57c.53,2.5,20.21,53,20.21,53H604V16l-17,0V68h-.57c-.16-1.33-16.74-45.76-19.29-52Z"
     id="path26" />
  <polygon
     class="cls-3"
     points="724 62.02 724 93.02 741 93.02 741 16.02 724 16.02 724 46.02 709 46.02 709 16.02 691 16.02 691 93.02 709 93.02 709 62.02 724 62.02 724 62.02"
     id="polygon28" />
  <polygon
     class="cls-3"
     points="474 93.02 492 93.02 492 60.02 519 60.02 519 45.02 492 45.02 492 31.02 521 31.02 521 16.02 474 16.02 474 93.02 474 93.02"
     id="polygon30" />
  <polygon
     class="cls-3"
     points="610 16.02 610 93.02 627 93.02 627 16.02 610 16.02 610 16.02"
     id="polygon32" />
  <circle
     class="cls-3"
     cx="111.82"
     cy="71.29"
     r="14.01"
     id="circle34" />
  <circle
     class="cls-3"
     cx="28.56"
     cy="34.12"
     r="14.01"
     id="circle36" />
  <circle
     class="cls-3"
     cx="28.56"
     cy="108.15"
     r="14.01"
     id="circle38" />
  <rect
     class="cls-3"
     x="37"
     y="28.02"
     width="89"
     height="11"
     id="rect40" />
  <rect
     class="cls-3"
     x="14"
     y="66.02"
     width="89"
     height="11"
     id="rect42" />
  <rect
     class="cls-3"
     x="35"
     y="103.2"
     width="705.99"
     height="10.64"
     id="rect44" />
  <metadata
     id="metadata864">
    <rdf:RDF>
      <cc:Work
         rdf:about="">
        <dc:title>Zeichenfläche 1</dc:title>
      </cc:Work>
    </rdf:RDF>
  </metadata>
</svg>
